<svg width="48" height="48" viewBox="0 0 48 48" fill="none" xmlns="http://www.w3.org/2000/svg">
<path d="M37.9688 30V25.9688H34.0312V30H37.9688ZM37.9688 37.9688V34.0312H34.0312V37.9688H37.9688ZM25.9688 13.9688V10.0312H22.0312V13.9688H25.9688ZM25.9688 22.0312V18H22.0312V22.0312H25.9688ZM25.9688 30V25.9688H22.0312V30H25.9688ZM25.9688 37.9688V34.0312H22.0312V37.9688H25.9688ZM13.9688 22.0312V18H10.0312V22.0312H13.9688ZM13.9688 30V25.9688H10.0312V30H13.9688ZM13.9688 37.9688V34.0312H10.0312V37.9688H13.9688ZM30 22.0312H42V42H6V13.9688H18V10.0312L24 4.03125L30 10.0312V22.0312Z" fill="url(#paint0_linear)"/>
<defs>
<linearGradient id="paint0_linear" x1="24" y1="0" x2="24" y2="48" gradientUnits="userSpaceOnUse">
<stop stop-color="#BC9CFF"/>
<stop offset="1" stop-color="#8BA4F9"/>
</linearGradient>
</defs>
</svg>
