<svg width="48" height="48" viewBox="0 0 48 48" fill="none" xmlns="http://www.w3.org/2000/svg">
<path d="M30.1875 33.0938C28.375 34.3438 26.3125 34.9688 24 34.9688C21.6875 34.9688 19.5938 34.3438 17.7188 33.0938C15.9062 31.7812 14.5938 30.0938 13.7812 28.0312H34.2188C33.4062 30.0938 32.0625 31.7812 30.1875 33.0938ZM19.0312 21.1875C18.4688 21.75 17.7812 22.0312 16.9688 22.0312C16.1562 22.0312 15.4375 21.75 14.8125 21.1875C14.25 20.5625 13.9688 19.8438 13.9688 19.0312C13.9688 18.2188 14.25 17.5312 14.8125 16.9688C15.4375 16.3438 16.1562 16.0312 16.9688 16.0312C17.7812 16.0312 18.4688 16.3438 19.0312 16.9688C19.6562 17.5312 19.9688 18.2188 19.9688 19.0312C19.9688 19.8438 19.6562 20.5625 19.0312 21.1875ZM33.0938 21.1875C32.5312 21.75 31.8438 22.0312 31.0312 22.0312C30.2188 22.0312 29.5 21.75 28.875 21.1875C28.3125 20.5625 28.0312 19.8438 28.0312 19.0312C28.0312 18.2188 28.3125 17.5312 28.875 16.9688C29.5 16.3438 30.2188 16.0312 31.0312 16.0312C31.8438 16.0312 32.5312 16.3438 33.0938 16.9688C33.7188 17.5312 34.0312 18.2188 34.0312 19.0312C34.0312 19.8438 33.7188 20.5625 33.0938 21.1875ZM12.6562 35.3438C15.8438 38.4688 19.625 40.0312 24 40.0312C28.375 40.0312 32.125 38.4688 35.25 35.3438C38.4375 32.1562 40.0312 28.375 40.0312 24C40.0312 19.625 38.4375 15.875 35.25 12.75C32.125 9.5625 28.375 7.96875 24 7.96875C19.625 7.96875 15.8438 9.5625 12.6562 12.75C9.53125 15.875 7.96875 19.625 7.96875 24C7.96875 28.375 9.53125 32.1562 12.6562 35.3438ZM9.84375 9.9375C13.7812 6 18.5 4.03125 24 4.03125C29.5 4.03125 34.1875 6 38.0625 9.9375C42 13.8125 43.9688 18.5 43.9688 24C43.9688 29.5 42 34.2188 38.0625 38.1562C34.1875 42.0312 29.5 43.9688 24 43.9688C18.5 43.9688 13.7812 42.0312 9.84375 38.1562C5.96875 34.2188 4.03125 29.5 4.03125 24C4.03125 18.5 5.96875 13.8125 9.84375 9.9375Z" fill="url(#paint0_linear)"/>
<linearGradient id="paint0_linear" x1="24" y1="0" x2="24" y2="48" gradientUnits="userSpaceOnUse">
<stop stop-color="#BC9CFF"/>
<stop offset="1" stop-color="#8BA4F9"/>
</linearGradient>
</svg>
