<svg width="48" height="48" viewBox="0 0 48 48" fill="none" xmlns="http://www.w3.org/2000/svg">
<path d="M23.4375 37.9688C26.125 37.9688 28.375 37.0625 30.1875 35.25C32.0625 33.375 33 31.0938 33 28.4062C33 25.6562 32.625 22.9688 31.875 20.3438C29.9375 22.9062 26.8438 24.625 22.5938 25.5C18.8438 26.3125 16.9688 28.375 16.9688 31.6875C16.9688 33.4375 17.5938 34.9375 18.8438 36.1875C20.0938 37.375 21.625 37.9688 23.4375 37.9688ZM27 1.3125C31 4.5625 34.1562 8.53125 36.4688 13.2188C38.8438 17.8438 40.0312 22.7812 40.0312 28.0312C40.0312 32.4062 38.4688 36.1562 35.3438 39.2812C32.2188 42.4062 28.4375 43.9688 24 43.9688C19.5625 43.9688 15.7812 42.4062 12.6562 39.2812C9.53125 36.1562 7.96875 32.4062 7.96875 28.0312C7.96875 21.2812 10.125 15.3438 14.4375 10.2188V10.9688C14.4375 13.0312 15.125 14.7813 16.5 16.2188C17.875 17.6562 19.5938 18.375 21.6562 18.375C23.6562 18.375 25.2812 17.6875 26.5312 16.3125C27.8438 14.875 28.5 13.0938 28.5 10.9688C28.5 9.71875 28.375 8.28125 28.125 6.65625C27.875 5.03125 27.625 3.75 27.375 2.8125L27 1.3125Z" fill="url(#paint0_linear)"/>
<defs>
<linearGradient id="paint0_linear" x1="24" y1="0" x2="24" y2="48" gradientUnits="userSpaceOnUse">
<stop stop-color="#BC9CFF"/>
<stop offset="1" stop-color="#8BA4F9"/>
</linearGradient>
</defs>
</svg>
